<mxfile host="app.diagrams.net" modified="2022-01-25T12:30:26.774Z" agent="5.0 (Macintosh; Intel Mac OS X 10_15_7) AppleWebKit/605.1.15 (KHTML, like Gecko) Version/15.1 Safari/605.1.15" etag="EBISxrNFaaqa_vT_-eSX" version="16.4.6" type="github">
  <diagram id="lDVrdTSE1b3Xtm_8JWBm" name="Page-1">
    <mxGraphModel dx="788" dy="561" grid="1" gridSize="10" guides="1" tooltips="1" connect="1" arrows="1" fold="1" page="1" pageScale="1" pageWidth="827" pageHeight="1169" math="0" shadow="0">
      <root>
        <mxCell id="0" />
        <mxCell id="1" parent="0" />
        <mxCell id="J8c03_1jTpqeIVsCipRT-32" style="edgeStyle=orthogonalEdgeStyle;rounded=0;orthogonalLoop=1;jettySize=auto;html=1;" edge="1" parent="1" source="J8c03_1jTpqeIVsCipRT-1" target="J8c03_1jTpqeIVsCipRT-14">
          <mxGeometry relative="1" as="geometry" />
        </mxCell>
        <mxCell id="J8c03_1jTpqeIVsCipRT-1" value="Start" style="rounded=1;whiteSpace=wrap;html=1;" vertex="1" parent="1">
          <mxGeometry x="210" y="30" width="120" height="60" as="geometry" />
        </mxCell>
        <mxCell id="J8c03_1jTpqeIVsCipRT-2" value="End" style="rounded=1;whiteSpace=wrap;html=1;" vertex="1" parent="1">
          <mxGeometry x="270" y="555" width="120" height="60" as="geometry" />
        </mxCell>
        <mxCell id="J8c03_1jTpqeIVsCipRT-31" style="edgeStyle=orthogonalEdgeStyle;rounded=0;orthogonalLoop=1;jettySize=auto;html=1;" edge="1" parent="1" source="J8c03_1jTpqeIVsCipRT-14" target="J8c03_1jTpqeIVsCipRT-21">
          <mxGeometry relative="1" as="geometry" />
        </mxCell>
        <mxCell id="J8c03_1jTpqeIVsCipRT-14" value="Карточка вставлена" style="shape=parallelogram;perimeter=parallelogramPerimeter;whiteSpace=wrap;html=1;fixedSize=1;size=10;" vertex="1" parent="1">
          <mxGeometry x="190" y="140" width="140" height="60" as="geometry" />
        </mxCell>
        <mxCell id="J8c03_1jTpqeIVsCipRT-39" style="edgeStyle=orthogonalEdgeStyle;rounded=0;orthogonalLoop=1;jettySize=auto;html=1;" edge="1" parent="1" source="J8c03_1jTpqeIVsCipRT-19" target="J8c03_1jTpqeIVsCipRT-2">
          <mxGeometry relative="1" as="geometry" />
        </mxCell>
        <mxCell id="J8c03_1jTpqeIVsCipRT-19" value="Возврат карточки" style="shape=parallelogram;perimeter=parallelogramPerimeter;whiteSpace=wrap;html=1;fixedSize=1;size=10;" vertex="1" parent="1">
          <mxGeometry x="680" y="585" width="140" height="60" as="geometry" />
        </mxCell>
        <mxCell id="J8c03_1jTpqeIVsCipRT-29" style="edgeStyle=orthogonalEdgeStyle;rounded=0;orthogonalLoop=1;jettySize=auto;html=1;exitX=0.5;exitY=1;exitDx=0;exitDy=0;" edge="1" parent="1" source="J8c03_1jTpqeIVsCipRT-21" target="J8c03_1jTpqeIVsCipRT-22">
          <mxGeometry relative="1" as="geometry" />
        </mxCell>
        <mxCell id="J8c03_1jTpqeIVsCipRT-33" value="Отмена" style="edgeStyle=orthogonalEdgeStyle;rounded=0;orthogonalLoop=1;jettySize=auto;html=1;" edge="1" parent="1" source="J8c03_1jTpqeIVsCipRT-21" target="J8c03_1jTpqeIVsCipRT-19">
          <mxGeometry relative="1" as="geometry" />
        </mxCell>
        <mxCell id="J8c03_1jTpqeIVsCipRT-21" value="Ожидание ПИН-кода" style="shape=parallelogram;perimeter=parallelogramPerimeter;whiteSpace=wrap;html=1;fixedSize=1;size=0;" vertex="1" parent="1">
          <mxGeometry x="200" y="260" width="140" height="60" as="geometry" />
        </mxCell>
        <mxCell id="J8c03_1jTpqeIVsCipRT-24" value="Отмена" style="edgeStyle=orthogonalEdgeStyle;rounded=0;orthogonalLoop=1;jettySize=auto;html=1;exitX=1;exitY=0.5;exitDx=0;exitDy=0;" edge="1" parent="1" source="J8c03_1jTpqeIVsCipRT-22" target="J8c03_1jTpqeIVsCipRT-19">
          <mxGeometry relative="1" as="geometry" />
        </mxCell>
        <mxCell id="J8c03_1jTpqeIVsCipRT-35" style="edgeStyle=orthogonalEdgeStyle;rounded=0;orthogonalLoop=1;jettySize=auto;html=1;exitX=1;exitY=0.5;exitDx=0;exitDy=0;" edge="1" parent="1" source="J8c03_1jTpqeIVsCipRT-22" target="J8c03_1jTpqeIVsCipRT-34">
          <mxGeometry relative="1" as="geometry">
            <mxPoint x="250" y="490" as="targetPoint" />
          </mxGeometry>
        </mxCell>
        <mxCell id="J8c03_1jTpqeIVsCipRT-36" value="3 неправильных попыток" style="edgeLabel;html=1;align=center;verticalAlign=middle;resizable=0;points=[];" vertex="1" connectable="0" parent="J8c03_1jTpqeIVsCipRT-35">
          <mxGeometry x="-0.3683" y="1" relative="1" as="geometry">
            <mxPoint x="-122" y="49" as="offset" />
          </mxGeometry>
        </mxCell>
        <mxCell id="J8c03_1jTpqeIVsCipRT-41" style="edgeStyle=orthogonalEdgeStyle;rounded=0;orthogonalLoop=1;jettySize=auto;html=1;entryX=0;entryY=0.5;entryDx=0;entryDy=0;" edge="1" parent="1" source="J8c03_1jTpqeIVsCipRT-22" target="J8c03_1jTpqeIVsCipRT-21">
          <mxGeometry relative="1" as="geometry" />
        </mxCell>
        <mxCell id="J8c03_1jTpqeIVsCipRT-22" value="Проверка ПИН-кода" style="shape=parallelogram;perimeter=parallelogramPerimeter;whiteSpace=wrap;html=1;fixedSize=1;size=10;" vertex="1" parent="1">
          <mxGeometry x="200" y="360" width="140" height="60" as="geometry" />
        </mxCell>
        <mxCell id="J8c03_1jTpqeIVsCipRT-37" style="edgeStyle=orthogonalEdgeStyle;rounded=0;orthogonalLoop=1;jettySize=auto;html=1;" edge="1" parent="1" source="J8c03_1jTpqeIVsCipRT-34" target="J8c03_1jTpqeIVsCipRT-2">
          <mxGeometry relative="1" as="geometry" />
        </mxCell>
        <mxCell id="J8c03_1jTpqeIVsCipRT-34" value="Конфискация карточки" style="shape=parallelogram;perimeter=parallelogramPerimeter;whiteSpace=wrap;html=1;fixedSize=1;size=0;" vertex="1" parent="1">
          <mxGeometry x="30" y="555" width="140" height="60" as="geometry" />
        </mxCell>
      </root>
    </mxGraphModel>
  </diagram>
</mxfile>
